<?xml version="1.0" encoding="utf-8"?>
<svg version="1.1" xmlns="http://www.w3.org/2000/svg" xmlns:xlink="http://www.w3.org/1999/xlink" x="0px" y="0px" viewBox="0 0 202.5 32" xml:space="preserve">
	<path class="logo__icon" d="M16,1C7.7,1,1,7.7,1,16s6.7,15,15,15s15-6.7,15-15S24.3,1,16,1z M12.2,22.2H9.7v-7.5h2.5V22.2z M17.2,22.2h-2.5v-7.5h2.5 V22.2z M22.2,22.2h-2.5v-7.5h2.5V22.2z M22.2,12.2H9.7V9.7h12.5V12.2z"/>
	<path class="logo__text" d="M175.6,8.9c-2.6,0-4.6,0.8-6.1,2.3s-2.2,3.3-2.2,5.3s0.7,3.8,2.2,5.3s3.5,2.3,6.1,2.3c2.6,0,4.6-0.8,6.1-2.3 s2.2-3.3,2.2-5.3s-0.8-3.8-2.2-5.3C180.2,9.7,178.2,8.9,175.6,8.9z M177.7,18.7c-0.5,0.6-1.2,0.9-2.2,0.9c-0.9,0-1.6-0.3-2.1-0.9 c-0.5-0.6-0.8-1.4-0.8-2.2c0-0.9,0.3-1.6,0.8-2.3c0.5-0.6,1.2-0.9,2.1-0.9c0.9,0,1.6,0.3,2.2,0.9c0.5,0.6,0.8,1.4,0.8,2.3 C178.5,17.3,178.2,18.1,177.7,18.7z M105.1,9.4l-4.6,6.5v-13h-5.6v20.6h5.5v-7.1l4.4,7.1h6.2l-5-7.5l5-6.6H105.1z M89,10.2 c-0.8,0.7-1.3,1.7-1.4,2.9h-0.1l-0.9-3.6H81l0.9,3.3v10.8h5.5v-9.9c0.4,0,0.8,0,1,0c1.1,0,2.7,0.3,4.6,0.8V9.1c-0.2,0-0.5,0-1,0 C90.8,9.1,89.8,9.4,89,10.2z M201.3,9.1l-3.6,1.4c-0.5-0.5-1.2-0.9-2-1.1C194.9,9.1,194,9,193.1,9c-2.2,0-4,0.7-5.3,2.2 s-2,3.3-2,5.5s0.6,3.9,1.8,5.2c1.2,1.3,2.6,1.9,4.2,1.9c2.3,0,3.7-1.1,4.1-3.3h0.1v2.9c0,0.8-0.3,1.4-0.9,1.8 c-0.6,0.4-1.3,0.6-2.2,0.6c-1.4,0-2.8-0.5-4.3-1.5l-2.4,3.8c2.2,1.5,4.4,2.2,6.7,2.2c1.5,0,2.8-0.2,4.1-0.7 c1.3-0.5,2.3-1.2,3.2-2.3c0.9-1.1,1.3-2.4,1.3-4l0.1-14.2H201.3z M196.2,19.7c-0.5,0.2-1,0.3-1.5,0.3c-0.9,0-1.6-0.3-2.1-1 s-0.8-1.5-0.8-2.6c0-1.1,0.3-1.9,0.8-2.6s1.2-1,2.1-1c0.5,0,1.1,0.1,1.5,0.3V19.7z M58,9c-1.1,0-2.1,0.3-2.9,1 c-0.8,0.7-1.3,1.7-1.4,3h-0.1c-0.1-1.3-0.5-2.3-1.3-3s-1.8-1-3-1s-2.1,0.3-2.9,1c-0.8,0.7-1.2,1.7-1.3,2.9H45l-0.8-3.5h-5.6 l0.9,3.3v10.8H45v-9.9c0.6-0.2,1.1-0.3,1.6-0.3c0.4,0,0.8,0.1,1.1,0.3c0.3,0.2,0.5,0.5,0.5,0.8v9.2h5.6v-9.9 c0.5-0.2,1.1-0.4,1.6-0.4c0.4,0,0.8,0.1,1.1,0.3c0.3,0.2,0.4,0.5,0.4,0.8v9.2h5.6V13.2c0-1.4-0.4-2.4-1.3-3.1 C60.4,9.3,59.3,9,58,9z M78.9,13.9c0-0.9-0.2-1.7-0.6-2.3c-0.4-0.7-1.2-1.2-1.8-1.6c-0.7-0.4-1.4-0.6-2.1-0.8 c-0.7-0.2-1.5-0.3-2.3-0.3c-2.9,0-5.4,0.9-7.6,2.8l2.7,3.5c0.6-0.6,1.4-1,2.3-1.4c0.9-0.4,1.8-0.6,2.7-0.6c0.8,0,1.3,0.3,1.3,0.8 c0,0.1,0,0.2-0.1,0.3c-0.1,0.1-0.1,0.2-0.2,0.2c-0.1,0.1-0.2,0.1-0.3,0.2c-0.1,0.1-0.3,0.1-0.5,0.2C72.2,15,72,15,71.9,15.1 c-0.2,0-0.4,0.1-0.6,0.1c-0.3,0-0.5,0.1-0.6,0.1c-0.2,0-0.4,0.1-0.7,0.2s-0.5,0.1-0.7,0.1c-0.7,0.1-1.3,0.3-1.8,0.5 c-0.5,0.2-1,0.4-1.5,0.7s-0.9,0.7-1.2,1.2s-0.4,1.1-0.4,1.8c0,1.2,0.4,2.2,1.3,2.9c0.9,0.7,2,1.1,3.2,1.1c1.1,0,2.1-0.3,2.9-0.9 c0.8-0.6,1.4-1.6,1.6-2.8h0.1l0.8,3.5h5.6l-1-3.7V13.9z M71.2,20.1c-1,0-1.5-0.3-1.5-1c0-0.3,0.2-0.5,0.7-0.7 c0.5-0.2,1-0.4,1.6-0.6c0.6-0.2,1-0.4,1.2-0.6v2.5h0.1C72.6,20,71.9,20.1,71.2,20.1z M159.9,23.5h5.5V2.9h-5.5V23.5z M119.1,5.6 c-0.7-0.7-1.5-1-2.5-1s-1.9,0.3-2.5,1C113.4,6.3,113,7.1,113,8s0.3,1.7,1,2.3l-1.9,4.9c0,0,6.1-2.2,7.8-5.9 c0.2-0.4,0.3-0.7,0.3-1.3C120.2,7.1,119.8,6.2,119.1,5.6z M152,9c-2.3,0-3.7,1.2-4.2,3.5V2.9h-5.6v21h0.3l3.6-1.4 c0.5,0.5,1.2,0.9,2,1.1c0.8,0.3,1.7,0.4,2.6,0.4c2.2,0,4-0.7,5.3-2.2c1.3-1.5,2-3.3,2-5.5c-0.1-2.3-0.7-4.1-1.9-5.4 C154.9,9.6,153.6,9,152,9z M151.4,19.1c-0.5,0.7-1.2,1-2.1,1c-0.5,0-1.1-0.1-1.5-0.3v-6.6c0.5-0.2,1-0.3,1.5-0.3 c0.9,0,1.6,0.3,2.1,1c0.6,0.6,0.8,1.5,0.8,2.6S151.9,18.4,151.4,19.1z M131.7,15.1c-0.8-0.2-1.6-0.4-2.4-0.6 c-0.8-0.1-1.5-0.3-2.1-0.5c-0.6-0.2-0.9-0.4-0.9-0.7c0,0,0.1-0.1,0.2-0.2c0.3-0.1,0.6-0.2,1.1-0.2c1.8,0,3.4,0.6,4.8,1.8l2.1-3.7 c-2-1.5-4.4-2.2-7-2.2c-0.9,0-1.7,0.1-2.4,0.2c-0.7,0.2-1.4,0.4-2.1,0.8c-0.6,0.4-1.1,0.9-1.5,1.5c-0.4,0.6-0.5,1.4-0.5,2.2 c0,1,0.3,1.8,0.9,2.5c0.6,0.7,1.3,1.1,2.1,1.3s1.6,0.4,2.5,0.6c0.8,0.1,1.5,0.2,2.1,0.4c0.6,0.1,0.9,0.3,0.9,0.6 c0,0.2-0.2,0.4-0.4,0.5c-0.3,0.1-0.6,0.2-1.1,0.2c-2.3,0-4.2-0.7-5.9-2.2l-2.1,3.7c0.8,0.8,2,1.4,3.4,1.9c1.4,0.5,2.9,0.7,4.5,0.7 c1.9,0,3.5-0.4,4.8-1.2s1.9-2,1.9-3.7c0-1-0.3-1.8-0.8-2.4C133.2,15.8,132.5,15.3,131.7,15.1z"/>
</svg>